[Header]
FileType HTR
DataType HTRS
FileVersion 1
NumSegments 22
NumFrames 5
DataFrameRate 24
EulerRotationOrder ZYX
CalibrationUnits mm
RotationUnits Degrees
GlobalAxisofGravity Y
BoneLengthAxis Y
ScaleFactor 1.0
[SegmentNames&Hierarchy]
reference	GLOBAL
Hips	reference
Spine	Hips
Spine1	Spine
Neck	Spine1
Head	Neck
LeftShoulder	Spine1
LeftArm	LeftShoulder
LeftForeArm	LeftArm
LeftHand	LeftForeArm
RightShoulder	Spine1
RightArm	RightShoulder
RightForeArm	RightArm
RightHand	RightForeArm
LeftUpLeg	Hips
LeftLeg	LeftUpLeg
LeftFoot	LeftLeg
LeftToeBase	LeftFoot
RightUpLeg	Hips
RightLeg	RightUpLeg
RightFoot	RightLeg
RightToeBase	RightFoot
[BasePosition]
reference	0	0	0	0	0	0	1
Hips	0	0	0	0	0	0	1
Spine	0	0	0	0	-0	90	1
Spine1	0	0	0	0	0	0	1
Neck	0	0	0	-7.352430803	-7.352430803	90	1
Head	0	0	0	0	-0	90	1
LeftShoulder	0	0	0	0	0	0	1
LeftArm	0	0	0	0	0	0	1
LeftForeArm	0	0	0	0	0	0	1
LeftHand	0	0	0	0	0	0	1
RightShoulder	0	0	0	0	-0	180	1
RightArm	0	0	0	0	-0	180	1
RightForeArm	0	0	0	0	-0	180	1
RightHand	0	0	0	0	-0	180	1
LeftUpLeg	0	0	0	0	-0	-90	1
LeftLeg	0	0	0	0	-0	-90	1
LeftFoot	0	0	0	66.57150701	-66.57150701	-90	1
LeftToeBase	0	0	0	0	-90	0	1
RightUpLeg	0	0	0	0	-0	-90	1
RightLeg	0	0	0	0	-0	-90	1
RightFoot	0	0	0	66.57150701	-66.57150701	-90	1
RightToeBase	0	0	0	0	-90	0	1
[reference]
37	0	0	0	0	-0	0	1.0
38	0	0	0	0	-0	0	1.0
39	0	0	0	0	-0	0	1.0
40	0	0	0	0	-0	0	1.0
41	0	0	0	0	-0	0	1.0
[Hips]
37	1.657660007	9.145394325	-0.4966498613	49.40901184	-39.15440369	-60.32720947	1.0
38	1.340087891	9.107868195	-0.5301095247	46.02742767	-39.71226883	-59.19670105	1.0
39	1.111073732	9.061029434	-0.5601102114	46.52334595	-42.39955902	-58.28352356	1.0
40	1.078036904	8.912094116	-0.585676074	47.02819061	-48.10396576	-55.38928986	1.0
41	1.033561945	8.876526833	-0.6063717008	46.94990158	-51.18981934	-53.00167465	1.0
[Spine]
37	0	0.7478299737	0	-0.7662127018	-4.726439476	-82.5645752	1.0
38	0	0.7478299737	0	-1.996527195	-3.211973667	-81.77745056	1.0
39	0	0.7478299737	0	-5.398381233	-0.02595752478	-82.57038879	1.0
40	0	0.7478299737	0	-7.351004124	2.732120752	-83.61722565	1.0
41	0	0.7478299737	0	-8.499293327	3.520817995	-85.63861084	1.0
[Spine1]
37	0	2.049309969	0	14.49381828	-3.113143682	11.93347359	1.0
38	0	2.049309969	0	13.07105732	-2.067525864	9.832663536	1.0
39	0	2.049309969	0	9.98680687	-0.8285554051	7.770488739	1.0
40	0	2.049309969	0	8.414266586	0.7324669361	3.945220709	1.0
41	0	2.049309969	0	10.23581982	0.8779783249	2.111037731	1.0
[Neck]
37	0	2.231709957	0	4.89807272	-5.240869999	-62.42214966	1.0
38	0	2.231709957	0	6.398334503	-7.763663292	-64.61238098	1.0
39	0	2.231709957	0	10.70858955	-9.5655756	-69.15141296	1.0
40	0	2.231709957	0	6.148777485	-8.873804092	-68.15077972	1.0
41	0	2.231709957	0	5.001554012	-8.624067307	-69.73527527	1.0
[Head]
37	0	1.413589954	0.1823999882	-16.38216782	-9.51695919	-90.90684509	1.0
38	0	1.413589954	0.1823999882	-13.62576389	-11.9797554	-89.60876465	1.0
39	0	1.413589954	0.1823999882	-14.83764935	-13.40340614	-85.22447205	1.0
40	0	1.413589954	0.1823999882	-11.31249046	-13.7150526	-87.08396912	1.0
41	0	1.413589954	0.1823999882	-10.62736607	-13.95510769	-86.50447845	1.0
[LeftShoulder]
37	0.3649300039	1.825889945	-0.04271000251	-14.23410034	-17.72494507	9.782912254	1.0
38	0.3649300039	1.825889945	-0.04271000251	-12.95547676	-18.63604164	9.498738289	1.0
39	0.3649300039	1.825889945	-0.04271000251	-11.41394043	-17.87562561	7.88483429	1.0
40	0.3649300039	1.825889945	-0.04271000251	-12.81955242	-16.30670547	8.340471268	1.0
41	0.3649300039	1.825889945	-0.04271000251	-14.830266	-12.32969761	9.756635666	1.0
[LeftArm]
37	1.24003005	0	0	55.1044426	-9.569747925	-77.95265961	1.0
38	1.24003005	0	0	53.41016769	-10.27058792	-76.24151611	1.0
39	1.24003005	0	0	52.9315567	-9.602669716	-75.12011719	1.0
40	1.24003005	0	0	50.25256729	-8.609434128	-75.45822144	1.0
41	1.24003005	0	0	49.75374985	-7.00596571	-77.49035645	1.0
[LeftForeArm]
37	2.847419977	0	0	-147.324707	-54.53315735	158.6651001	1.0
38	2.847419977	0	0	-151.8257751	-53.97496414	161.9568939	1.0
39	2.847419977	0	0	-153.3249969	-53.18527603	163.9403839	1.0
40	2.847419977	0	0	-159.2357483	-53.38499451	167.7196808	1.0
41	2.847419977	0	0	-159.0991058	-53.88808823	166.8907318	1.0
[LeftHand]
37	2.258270025	0	0	-6.721753597	-13.73143482	-6.252224922	1.0
38	2.258270025	0	0	-5.779167652	-12.21117496	-6.302416325	1.0
39	2.258270025	0	0	-4.230277538	-11.36963654	-5.734423161	1.0
40	2.258270025	0	0	-2.826603889	-11.13756752	-5.800633907	1.0
41	2.258270025	0	0	-3.760915995	-11.84823895	-7.844142437	1.0
[RightShoulder]
37	-0.3646599948	1.825889945	-0.04271000251	-8.577879906	4.374862671	178.3016357	1.0
38	-0.3646599948	1.825889945	-0.04271000251	-6.141626358	3.534166336	178.785675	1.0
39	-0.3646599948	1.825889945	-0.04271000251	-4.719664097	4.101564407	178.807373	1.0
40	-0.3646599948	1.825889945	-0.04271000251	-7.533905029	5.151821136	177.4815521	1.0
41	-0.3646599948	1.825889945	-0.04271000251	-7.705060959	6.912689686	176.9361572	1.0
[RightArm]
37	-1.24003005	0	0	45.78742218	-10.05938816	-108.7351685	1.0
38	-1.24003005	0	0	45.66252518	-7.490815163	-108.8024368	1.0
39	-1.24003005	0	0	46.86288452	-6.802190304	-108.9051743	1.0
40	-1.24003005	0	0	49.12780762	-5.763461113	-106.9362106	1.0
41	-1.24003005	0	0	51.89055252	-4.476031303	-107.151329	1.0
[RightForeArm]
37	-2.847419977	0	0	-129.714386	45.54404831	21.40733337	1.0
38	-2.847419977	0	0	-129.719574	45.77069092	21.58317184	1.0
39	-2.847419977	0	0	-127.1722565	45.01997375	22.84470558	1.0
40	-2.847419977	0	0	-125.3629761	44.94929123	24.12414551	1.0
41	-2.847419977	0	0	-119.6070404	44.19474792	27.50588989	1.0
[RightHand]
37	-2.258270025	0	0	0.710968256	12.64461231	170.2275696	1.0
38	-2.258270025	0	0	0.712653935	13.3265028	171.9548187	1.0
39	-2.258270025	0	0	-0.08195334673	13.60681915	172.7833862	1.0
40	-2.258270025	0	0	-0.8394851089	13.8196106	173.1703796	1.0
41	-2.258270025	0	0	-2.547212124	13.88762665	173.6806335	1.0
[LeftUpLeg]
37	0.9119900465	0	0	-19.61153412	26.67674637	127.911972	1.0
38	0.9119900465	0	0	-15.66657639	28.22566032	126.680603	1.0
39	0.9119900465	0	0	-14.05076981	22.48131943	124.6094666	1.0
40	0.9119900465	0	0	-13.88258553	19.1808815	120.8218231	1.0
41	0.9119900465	0	0	-13.03260326	20.2906723	118.536087	1.0
[LeftLeg]
37	0	-4.371409893	0	37.76983643	-4.575719833	84.75315857	1.0
38	0	-4.371409893	0	35.19353867	-2.516631842	90.60258484	1.0
39	0	-4.371409893	0	32.72488022	4.400413513	92.22393799	1.0
40	0	-4.371409893	0	33.41437531	2.313768387	88.46131897	1.0
41	0	-4.371409893	0	30.09035492	2.447326183	84.75858307	1.0
[LeftFoot]
37	0	-3.918009996	0	-112.569519	114.8991928	-62.04168701	1.0
38	0	-3.918009996	0	-121.7137451	114.324852	-68.92404175	1.0
39	0	-3.918009996	0	-113.446167	114.3194504	-57.5871048	1.0
40	0	-3.918009996	0	-97.05584717	118.5114822	-37.38516235	1.0
41	0	-3.918009996	0	-94.73848724	123.1092377	-34.62701416	1.0
[LeftToeBase]
37	0	-0.5927900076	1.367989898	0	0	0	1.0
38	0	-0.5927900076	1.367989898	0	0	0	1.0
39	0	-0.5927900076	1.367989898	0	0	0	1.0
40	0	-0.5927900076	1.367989898	0	0	0	1.0
41	0	-0.5927900076	1.367989898	0	0	0	1.0
[RightUpLeg]
37	-0.9119900465	0	0	-100.1145172	-35.07822037	92.74743652	1.0
38	-0.9119900465	0	0	-103.5707092	-36.78541565	92.29703522	1.0
39	-0.9119900465	0	0	-105.2419281	-32.82379913	95.71636963	1.0
40	-0.9119900465	0	0	-105.7577133	-16.1742363	123.4070587	1.0
41	-0.9119900465	0	0	-95.79043579	-11.86155033	134.3314362	1.0
[RightLeg]
37	0	-4.371409893	0	68.33944702	11.72809315	45.00382233	1.0
38	0	-4.371409893	0	108.1240387	28.04656982	61.33834076	1.0
39	0	-4.371409893	0	148.2700806	12.53627777	83.68251038	1.0
40	0	-4.371409893	0	155.8223114	4.987734795	91.13805389	1.0
41	0	-4.371409893	0	139.4918671	15.10908604	89.56240845	1.0
[RightFoot]
37	0	-3.918009996	0	57.39777374	56.41745377	101.7782745	1.0
38	0	-3.918009996	0	40.59891129	56.17150497	86.55257416	1.0
39	0	-3.918009996	0	25.8047905	51.07118988	63.76660156	1.0
40	0	-3.918009996	0	22.89824295	53.66770172	55.60018921	1.0
41	0	-3.918009996	0	71.04024506	48.92617416	105.1773071	1.0
[RightToeBase]
37	0	-0.5927900076	1.367989898	0	0	0	1.0
38	0	-0.5927900076	1.367989898	0	0	0	1.0
39	0	-0.5927900076	1.367989898	0	0	0	1.0
40	0	-0.5927900076	1.367989898	0	0	0	1.0
41	0	-0.5927900076	1.367989898	0	0	0	1.0
[EndOfFile]
